<?xml version="1.0" encoding="UTF-8"?>
<svg xmlns="http://www.w3.org/2000/svg" version="1.1" viewBox="0 0 272.8 322.7">
  <defs>
    <style>
      .cls-1 {
        fill: #fff;
      }
    </style>
  </defs>
  <!-- Generator: Adobe Illustrator 28.7.1, SVG Export Plug-In . SVG Version: 1.2.0 Build 142)  -->
  <g>
    <g id="_レイヤー_1" data-name="レイヤー_1">
      <g>
        <g>
          <path class="cls-1" d="M115.3,3.1c8.1,8.2,15.2,17.3,21.1,27.2,5.9-9.9,13-19,21.1-27.2-6.8-1.4-13.8-2.2-21.1-2.2s-14.3.8-21.1,2.2Z"/>
          <path class="cls-1" d="M207.7,122.5h-21.1c-4,10.2-11.1,18.8-20,24.9,4.9,9.9,11.4,19.1,19.4,27.1,3.5,3.5,7.2,6.7,11.1,9.6,12.9-9.6,23.4-22.2,30.5-36.7-8.9-6.1-15.9-14.7-20-24.9Z"/>
          <path class="cls-1" d="M237,202.2c6.9,1.4,13.9,2.2,21.1,2.2s0,0,0,0v-29.4c-6,9.9-13,19-21.1,27.2Z"/>
          <path class="cls-1" d="M257.8.9c-7.1,0-14.1.8-20.8,2.2,8,8.1,15,17.1,20.8,26.8V.9Z"/>
          <path class="cls-1" d="M197.2,21.1c-12.8,9.6-23.3,22.2-30.5,36.7,8.9,6.1,15.9,14.7,20,24.9h21.1c4-10.2,11-18.8,20-24.9-7.1-14.5-17.6-27.1-30.5-36.7Z"/>
          <path class="cls-1" d="M14.8,204.3c7.2,0,14.2-.8,20.9-2.2-8-8.1-15.1-17.2-21-27v29.2Z"/>
          <path class="cls-1" d="M14.6.9v29.6c6-10,13.1-19.2,21.2-27.4C29,1.6,21.9.9,14.7.9s0,0-.1,0Z"/>
          <path class="cls-1" d="M115.3,202.1c6.8,1.4,13.8,2.2,21.1,2.2s14.2-.8,21-2.2c-8.2-8.3-15.2-17.4-21-27.1-5.9,9.9-13,19-21,27.1Z"/>
          <path class="cls-1" d="M86.1,122.5h-21.1c-4,10.2-11,18.8-20,24.9,7.1,14.5,17.6,27.1,30.5,36.7,12.8-9.6,23.3-22.2,30.5-36.7-8.9-6.1-15.9-14.7-20-24.9Z"/>
          <path class="cls-1" d="M75.5,21.1c-12.8,9.6-23.3,22.2-30.5,36.7,8.9,6.1,15.9,14.7,20,24.9h21.1c4-10.2,11-18.8,20-24.9-7.1-14.5-17.6-27.1-30.5-36.7Z"/>
          <circle class="cls-1" cx="136.4" cy="102.6" r="14.3"/>
          <circle class="cls-1" cx="14.7" cy="102.6" r="14.3"/>
          <circle class="cls-1" cx="258" cy="102.6" r="14.3" transform="translate(-19.5 92.1) rotate(-19.5)"/>
        </g>
        <g>
          <polygon class="cls-1" points="15.2 321.6 26 321.6 26 320.6 16.2 320.6 16.2 309.8 24.6 309.8 24.6 308.9 16.2 308.9 16.2 298.4 26.1 298.4 26.1 297.5 15.2 297.5 15.2 321.6"/>
          <path class="cls-1" d="M37.2,297.5h-5.9v24.1h5.9c4.5,0,7-2.8,6.8-7.8v-8.6c.1-5-2.4-7.8-6.8-7.8ZM43,313.7c.1,4.6-2,7-5.9,7h-4.8v-22.2h4.8c3.9,0,6,2.4,5.9,7v8.2Z"/>
          <rect class="cls-1" x="50.4" y="297.5" width="1" height="24.1"/>
          <polygon class="cls-1" points="56 298.4 61.8 298.4 61.8 321.6 62.9 321.6 62.9 298.4 68.7 298.4 68.7 297.5 56 297.5 56 298.4"/>
          <path class="cls-1" d="M79.3,297.2c-2.2,0-3.7.7-5,2.2-1.1,1.3-1.6,3.1-1.6,5.8v8.6c0,2.5.4,4.2,1.3,5.5,1.2,1.7,2.9,2.5,5.3,2.5s3.7-.7,5-2.2c1.1-1.3,1.6-3,1.6-5.8v-8.6c0-2.6-.4-4.1-1.3-5.5-1.2-1.7-2.9-2.5-5.2-2.5ZM84.8,313.7c0,2.4-.3,3.8-1.1,5-1,1.5-2.5,2.2-4.4,2.2s-3.2-.6-4.2-1.9c-1-1.2-1.3-2.7-1.3-5.3v-8.3c0-2.4.3-3.8,1.1-5,1-1.5,2.5-2.2,4.4-2.2s3.1.6,4.2,1.9c1,1.2,1.3,2.7,1.3,5.3v8.3Z"/>
          <path class="cls-1" d="M104.4,304c0-2-.5-3.5-1.5-4.7-1.1-1.3-2.5-1.8-4.9-1.8h-5.7v24.1h1v-11.1h5.6l4.4,11.1h1.1l-4.5-11.3c2.8-.4,4.5-2.7,4.5-6.3ZM98.2,309.5h-4.9v-11.1h4.6c1.9,0,3,.3,3.9,1.2,1,.9,1.5,2.4,1.5,4.3s-.4,3-1.2,4c-.9,1.1-2,1.5-4,1.5Z"/>
          <path class="cls-1" d="M60.7,266.8c.2-.1.3-.3.5-.5h-.1c-.2,0-.3.2-.5.3-1.3,1.1-2.6,2.2-4,3.2h0c1.4-1.1,2.7-2.2,4-3.3.2-.2.3-.4.5-.5l-.3-.3c-.2.2-.3.3-.5.5-3.9,3.5-8.6,6.6-13.7,9.1h0c5.1-2.5,9.8-5.7,13.7-9.1.3-.2.5-.5.8-.8h-.1c-.3.1-.5.4-.8.6-.4.3-.8.7-1.2,1h0c.4-.4.8-.7,1.2-1.1.2-.1.3-.3.4-.4l-.3-.3c-.1.1-.3.3-.4.4-2.3,2-4.7,3.9-7.4,5.6h0c2.7-1.7,5.2-3.6,7.4-5.6,0,0,0,0,.1-.1h0s0,0-.1,0c-9.1,8-22,14.4-36.2,14.4s-13.7-3.5-13.7-9c0-8,8.7-13.9,24.5-15.4.1.2.3.5.4.7.2.2.3.5.5.7l.2-.2c-.2-.2-.4-.4-.5-.7,0,0-.1-.1-.1-.2h0c0,0,.1.1.2.2,0,0,0,0,0,0h.1c0,0,0,0,0,0-.1-.2-.2-.3-.3-.5h.1c0,.1.2.3.3.4.2.3.4.5.6.7h.1c-.1-.2-.2-.3-.3-.5l.5-.3c0-.1-.2-.2-.3-.3h0c0-.1,0-.1,0-.1h0c0,.2,0,.2,0,.2h.2c0-.2,0-.2,0-.2h0c1.8-.1,3.6-.2,5.6-.2.2,0,.3,0,.5,0v-.3s0,0,0,0v-.6c-.1,0-.2,0-.4,0-2.2,0-4.2.1-6.1.3h0c2-.2,4-.3,6.2-.3.4,0,.8,0,1.1,0v-.5c-.4,0-.7,0-1.1,0-2.3,0-4.4.1-6.4.3-1.2-2.1-1.8-4.5-1.8-7.5,0-9.9,8.7-16.8,20.8-16.8s9.5,1.8,11.7,4.3c.1.1.3.3.4.4l.5-.5c-.1-.1-.3-.3-.4-.4-2.2-2.5-6.5-4.3-11.6-4.4h0c5.2,0,9.4,1.9,11.6,4.4.2.2.4.4.6.7h.1c-.2-.4-.4-.6-.6-.8-2.3-2.6-6.8-4.5-12.3-4.5h0c5.5,0,10,1.8,12.4,4.4.2.2.4.3.6.5h.1c-.2-.3-.3-.5-.5-.7-1.4-1.5-3.4-2.7-5.9-3.6h0c2.5.8,4.6,2.1,5.9,3.5.2.2.3.3.5.5l.2-.2c-.2-.2-.3-.3-.5-.5-2.4-2.6-7-4.7-12.8-4.7-13.1,0-22.2,7.8-22.2,18.3s.5,5.4,1.5,7.6c-16.9,1.7-25.3,8.3-25.3,16.7s4.5,10.4,15.3,10.4,27.8-6.4,37.2-14.6ZM34.3,254.3c-.2-.4-.4-.8-.6-1.2h0c.2.4.4.8.5,1.2h0ZM33.1,246.7c0,2.9.6,5.4,1.7,7.5h0c-1.2-2.1-1.8-4.6-1.8-7.5h0ZM33,251.7h0c.3.9.6,1.8,1,2.6h0c-.4-.8-.7-1.7-1-2.6ZM33.7,254.8s0,0,0,0c-.6,0-1.1.1-1.7.2h0c.5-.1,1.1-.2,1.7-.2Z"/>
          <path class="cls-1" d="M87.9,267.8v-.2c-1,.9-1.9,1.9-2.9,2.8-5.3,4.7-11.1,7.7-15.4,7.7h0c4.3-.1,10-3.2,15.2-7.9.8-.7,1.4-1.6,2.1-2.3v-.2c-.8.7-1.6,1.5-2.3,2.2-5.2,4.6-10.8,7.6-14.9,7.6h0c4.2,0,9.7-3,14.9-7.6.2-.2.4-.3.5-.5l-.2-.3c-.2.2-.3.3-.5.5-5.1,4.6-10.6,7.5-14.7,7.5s-3.9-1.1-3.9-3.6c0-5.2,4.6-10,13.7-17.3,1.1-1,1.6-1.6,1.6-2.5s-.9-2-1.7-3.4c-1.6-2.4-2.5-4.4-2.5-6.2s1.3-2.8,2.8-2.9c.1,0,.3,0,.4,0v-.3c-.2,0-.3,0-.5,0-1.6,0-3,1.1-3,3.1h0c0-2.1,1.4-3.2,3-3.3.1,0,.3-.1.4-.1v-.4c-.2,0-.3,0-.5,0-1.5,0-3,.9-3.4,2.7h0c.5-1.8,2-2.7,3.5-2.7.3,0,.7,0,1,0v-.4c-.3,0-.7,0-1.1,0-2,0-4,1.5-4,4.3s.9,4.1,2.7,6.9c.7,1.2,1.4,2.1,1.4,2.7s-.4.9-1.1,1.5c-9.6,7.7-14.3,12.9-14.3,18.4s2,5,5.3,5,10.3-2.9,15.7-7.8c.4-.3.7-.6,1-1h0c-.3.3-.7.6-1,.9-2.7,2.4-5.6,4.4-8.3,5.8h0c2.7-1.4,5.6-3.4,8.3-5.8,1-.9,1.9-1.9,2.7-2.8Z"/>
          <path class="cls-1" d="M160.4,244.4c-4.4,0-7,3.4-7,8.3s.4,4.3.8,7c-.6.5-1.3,1.1-2,1.6-3.8,3.2-8.1,6.1-12.3,8.5-.6-.9-1.2-1.9-1.7-3-.4-.9-.7-1.7-1.1-2.6l-.5.2c.2.6.4,1.1.6,1.6l-.5.2c.2.3.3.7.5.9.5,1.1,1.1,2.2,1.7,3.1h-.1c-.6-.9-1.2-1.9-1.8-3-.6-1.2-1.3-2.4-1.6-3.7h-.1c0,0,0,0,0,0h0c.4,1.3,1,2.5,1.6,3.8.5,1.1,1.1,2.2,1.7,3.1-6.5,3.6-12.8,6-17,6s-3.9-1.1-3.9-2.7c0-5.1,7.3-11.3,7.3-17s-1.7-4.2-4.7-4.2c-6.2,0-14.9,7.1-29.5,19.9,4.9-9.3,8.2-17.7,8.8-21.1,0-.6.2-1.2.2-2h-.3c0,.5,0,1,0,1.4l-.8-.2c0-.3,0-.6,0-.9h-.4c0,.5,0,1,0,1.4-.6,4-4.7,13.9-10.6,24.5l.5.2.4.5-.5.5.2.2.5-.5c16.2-14.1,25.2-22.4,31.8-22.4s3.2,1,3.2,2.9c0,5.5-7.3,11.7-7.3,17s.9,4.2,5.4,4.2,11-2.5,17.9-6.3c3,3.8,7,6.1,11.2,6.1s6.6-2.1,6.6-7.4-.7-6.6-1.3-10.3c6.7-5.6,9.3-8.3,9.3-11.7s-1.6-4.2-4.7-4.2ZM136.8,267.6c-.6-1.2-1.1-2.3-1.4-3.4,1.6,3.7,1.5,3.6,1.4,3.4ZM98.3,251.4c0-.1,0-.3,0-.5v.5c0,.6-.2,1.4-.5,2.2h0c.2-.9.4-1.6.5-2.2ZM99.1,251.7c-.3,1.9-1.6,5.9-3.8,10.7,2.1-4.7,3.4-8.6,3.8-10.7ZM139.4,270.3c-.6-.9-1.2-2-1.6-3,.5,1.1,1.1,2.1,1.7,3h0ZM148.5,277.4c-3.3-.6-6.4-2.6-8.8-5.7,0,0,0,0,.1,0,2.4,3.1,5.5,5.2,8.8,5.8h0ZM148.7,277c-3.2-.6-6.2-2.6-8.5-5.6h0c2.3,2.9,5.2,4.9,8.4,5.5h0ZM150.7,276.7c-3.8,0-7.3-2.1-10-5.5,4.2-2.5,8.5-5.4,12.4-8.5.5-.4.9-.8,1.4-1.2.6,3.4,1.1,6.9,1.1,9.2,0,4.1-2,6-4.9,6ZM155.6,258.7c-.4-2.3-.6-4.4-.6-5.9,0-3.8,1.8-6.9,5.5-6.9s3.2,1.1,3.2,2.9c0,3-2.4,5.3-8,9.9Z"/>
          <path class="cls-1" d="M204,238.6c-.7,0-1.4,0-2.1-.1h0c.7,0,1.5-.1,2.1,0,.9,0,1.9,0,2.9,0h0c-1-.2-2-.2-2.9-.2-3.5-.2-7.5-.3-11.9-.4h0c4.4,0,8.5.2,11.9.4,0,0,.2,0,.2,0v-.2c0,0-.1,0-.2,0-3.8-.2-8.3-.4-13.2-.4,2.2-2.6,4.4-5,6.3-7.1.6-.6,1.2-1.3,1.9-2.1l-.2-.2c-.7.7-1.2,1.4-1.8,2.1-1.9,2.1-4.1,4.6-6.4,7.2h-.1c2.3-2.7,4.5-5.3,6.4-7.4.5-.6,1-1.3,1.6-1.9l-.6-.5h0s0,0,0,0c-.6.7-1.2,1.3-1.7,1.9-2.1,2.3-4.5,5-7,7.9-1.6,0-3.3,0-5,0-24.2,0-54.9,1.6-66.7,2.8-.4,0-.9,0-1.4.2v.2c.2,0,.3,0,.5,0h0c-.3.2-.7.3-1,.3h0c.3,0,.7,0,1,0v.6c.3,0,.6,0,.9-.1,1.8-.2,4.1-.4,6.7-.5h0c-2.6.2-4.9.4-6.7.6-.6,0-1.2.1-1.9.2v.3c.7,0,1.3-.2,1.9-.2,11.8-1.1,42.4-2.7,66.6-2.7s2.6,0,3.8,0c-3.4,4-6.9,8.3-9.8,12.2-4.3,6.1-10,13.7-10,19.5s3.3,7.3,8.6,7.3c8.1,0,16-2.8,23.6-7.4.4-.2.8-.5,1.1-.7h0c-.4,0-.7.4-1.1.6-.8.5-1.6,1-2.5,1.4h0c.8-.5,1.6-1,2.4-1.5.8-.5,1.4-1,2.2-1.5h0c-.7.5-1.4,1-2.2,1.4-.8.5-1.6.9-2.4,1.4h0c.8-.5,1.6-.9,2.4-1.4.8-.5,1.6-1,2.4-1.6v-.2c.2-.2.4-.3.7-.5l-.3-.5c-1,.7-2,1.4-3.1,2.1-1.6.9-3.2,1.8-4.8,2.6h0c1.6-.8,3.3-1.7,4.8-2.6.4-.2.7-.4,1.1-.7v-.2c-.5.2-.8.5-1.2.7-7.3,4.3-15.2,7.3-22.9,7.3s-7-1.6-7-5.9,5.5-12.9,9.6-18.6c3.1-4.1,6.8-8.8,10.5-13,5.3,0,10.1.2,14.3.5.6,0,1.3,0,2,.1v-.2c0,0,.2,0,.2,0v-.3c.3,0,.6,0,.8,0v-.4c-1,0-2-.1-3-.2ZM196.1,229.6c.4-.5.9-.9,1.3-1.4-.4.5-.9,1-1.3,1.4-1.5,1.7-3.3,3.6-5.1,5.7h0c1.8-2.1,3.5-4,5.1-5.7ZM117.3,240.6h-.3c-.1,0-.3,0-.4,0,.2,0,.5,0,.7,0,2.2-.2,5-.4,8.3-.7h0c-3.3.3-6.2.6-8.3.8ZM125,240.2c.7,0,1.5-.1,2.2-.2h0c-.8,0-1.5.1-2.2.2ZM193.8,272.9c-.3.1-.6.3-.9.4h0c.3-.1.6-.3,1-.4ZM188.3,240.1h0c.3-.4.6-.8.9-1.1,0,0,0,0,.1,0-.3.4-.6.8-1,1.1ZM199.1,238.6c.8,0,1.7,0,2.5.1-.8,0-1.6,0-2.5-.1h0ZM203.9,239.3c-3.4-.2-7.4-.4-11.7-.4h0c4.3,0,8.3.2,11.7.4.2,0,.5,0,.7,0-.2,0-.5,0-.7,0Z"/>
        </g>
      </g>
    </g>
  </g>
</svg>